<svg width="800" height="400" xmlns="http://www.w3.org/2000/svg">
  <defs>
    <linearGradient id="bg" x1="0%" y1="0%" x2="100%" y2="100%">
      <stop offset="0%" style="stop-color:#1f2937;stop-opacity:1" />
      <stop offset="100%" style="stop-color:#374151;stop-opacity:1" />
    </linearGradient>
  </defs>
  <rect width="800" height="400" fill="url(#bg)"/>
  
  <!-- Shield icon -->
  <g transform="translate(350, 120)">
    <path d="M50 10 L90 30 L90 70 C90 90 70 110 50 110 C30 110 10 90 10 70 L10 30 Z" fill="#3b82f6" opacity="0.8"/>
    <path d="M50 25 L75 40 L75 70 C75 85 62.5 95 50 95 C37.5 95 25 85 25 70 L25 40 Z" fill="#1e40af"/>
    <path d="M45 55 L50 60 L65 45" stroke="#f9fafb" stroke-width="3" fill="none" stroke-linecap="round" stroke-linejoin="round"/>
  </g>
  
  <!-- Lock icons -->
  <g transform="translate(150, 250)">
    <rect x="0" y="15" width="30" height="25" rx="3" fill="#10b981" opacity="0.7"/>
    <path d="M7 15 L7 10 C7 4.5 11.5 0 17 0 C22.5 0 27 4.5 27 10 L27 15" stroke="#10b981" stroke-width="2" fill="none"/>
  </g>
  
  <g transform="translate(620, 280)">
    <rect x="0" y="15" width="30" height="25" rx="3" fill="#f59e0b" opacity="0.7"/>
    <path d="M7 15 L7 10 C7 4.5 11.5 0 17 0 C22.5 0 27 4.5 27 10 L27 15" stroke="#f59e0b" stroke-width="2" fill="none"/>
  </g>
  
  <!-- Network connections -->
  <line x1="200" y1="280" x2="350" y2="200" stroke="#6b7280" stroke-width="2" opacity="0.5" stroke-dasharray="5,5"/>
  <line x1="450" y1="200" x2="620" y2="300" stroke="#6b7280" stroke-width="2" opacity="0.5" stroke-dasharray="5,5"/>
  
  <!-- Text -->
  <text x="400" y="350" font-family="Arial, sans-serif" font-size="28" font-weight="bold" fill="#f9fafb" text-anchor="middle">API Security</text>
  <text x="400" y="375" font-family="Arial, sans-serif" font-size="16" fill="#9ca3af" text-anchor="middle">Essential Best Practices for Modern Web Development</text>
</svg>
